<svg version="1.2" xmlns="http://www.w3.org/2000/svg" viewBox="0 0 1552 400" width="1552" height="400">
	<title>launchpad-logo-and-name</title>
	<style>
		.s0 { fill: #000000 } 
		.s1 { fill: #223858 } 
		.s2 { fill: #ffffff } 
		.s3 { fill: none;stroke: #ffffff;stroke-linecap: round;stroke-linejoin: round;stroke-width: 4 } 
	</style>
	<g>
		<path id="Librebucket" class="s0" aria-label="Librebucket"  d="m335.7 323.1h71.2v12.9h-86.1v-151.4h14.9zm108.1-100.1v113h-14.2v-113zm3.3-34.1q0 5.1-3 8.1-3.1 2.9-7.5 2.9-4.3 0-7.4-2.9-3.1-3-3.1-8.1 0-5 3.1-7.8 3.1-3.1 7.4-3.1 4.4 0 7.5 3.1 3 2.8 3 7.8zm48.5-22.5v63.4q3.7-2.8 11.8-5.9 8.3-3.3 19.5-3.3 12.2 0 21.6 4.4 9.6 4.4 16.2 12.2 6.5 7.9 9.8 18.8 3.5 10.7 3.5 23.6 0 13.8-4.2 24.7-3.9 10.9-11.3 18.6-7.2 7.6-17.5 11.8-10.1 3.9-22.5 3.9-15.1 0-24.9-2-9.8-1.9-16.2-4.1v-163.4zm0 77.1v79.1q3.3 1.1 9.6 2.2 6.6 0.8 17.1 0.8 18.3 0 29.5-11.8 11.1-12 11.1-34.3 0-9.4-2-17.7-1.9-8.5-6.3-14.6-4.4-6.3-11.6-10.1-7-3.7-17.5-3.7-5 0-9.6 1.1-4.6 0.9-8.5 2.4-3.9 1.6-7 3.3-2.8 1.8-4.8 3.3zm151.6-22.7q7 0 13.2 1.1 6.3 1 8.7 2.1l-2.8 12.3q-1.8-0.9-7.3-1.8-5.2-1.1-13.9-1.1-9.2 0-14.9 1.3-5.5 1.4-7.2 2.2v99h-14.2v-107.7q5.5-2.4 15.1-4.8 9.6-2.6 23.3-2.6zm36.5 58.5q0-14.8 4.2-25.8 4.4-11.1 11.1-18.5 7-7.5 15.8-11 8.9-3.7 18.3-3.7 20.8 0 33 13.6 12.5 13.5 12.5 41.7 0 1.7-0.3 3.5 0 1.7-0.2 3.3h-79.3q0.7 20.7 10.3 31.9 9.6 11.1 30.6 11.1 11.5 0 18.3-2.2 6.8-2.2 9.9-3.7l2.6 12.2q-3.1 1.8-11.6 4.2-8.3 2.4-19.7 2.4-14.8 0-25.3-4.4-10.5-4.3-17.3-12.2-6.7-7.9-9.8-18.6-3.1-10.9-3.1-23.8zm15.5-8.9h64.7q-0.4-17.7-8.3-27.6-7.9-9.8-22.3-9.8-7.6 0-13.7 3.1-5.9 3-10.5 8.3-4.4 5-7 11.8-2.4 6.7-2.9 14.2zm125.2-104v63.3q3.8-2.8 11.8-5.9 8.3-3.3 19.5-3.3 12.2 0 21.6 4.4 9.6 4.4 16.2 12.2 6.5 7.9 9.8 18.8 3.5 10.7 3.5 23.6 0 13.8-4.1 24.7-4 10.9-11.4 18.6-7.2 7.6-17.5 11.8-10 3.9-22.5 3.9-15.1 0-24.9-1.9-9.8-2-16.2-4.2v-163.4zm0 77.1v79.1q3.3 1.1 9.7 2.2 6.5 0.9 17 0.9 18.3 0 29.5-11.8 11.1-12.1 11.1-34.3 0-9.4-1.9-17.7-2-8.6-6.4-14.7-4.3-6.3-11.6-10-6.9-3.7-17.4-3.7-5.1 0-9.6 1-4.6 0.9-8.6 2.4-3.9 1.6-7 3.3-2.8 1.8-4.8 3.3zm200-20.5v109q-6.4 1.7-17.1 3.9-10.7 2.2-26.2 2.2-12.7 0-21.2-3.7-8.5-3.7-13.8-10.5-5.2-6.8-7.6-16.4-2.2-9.6-2.2-21.2v-63.3h14.2v58.7q0 12.1 1.8 20.4 1.7 8.3 5.6 13.5 4 5 10.1 7.4 6.3 2.2 15.3 2.2 10 0 17.5-1.1 7.4-1.1 9.4-1.9v-99.2zm84.3 115.3q-13.1 0-23.2-4.1-10-4.2-16.8-11.8-6.6-7.9-10-18.6-3.5-10.9-3.5-24 0-13.4 3.5-24.3 3.7-10.9 10.4-18.8 6.8-7.8 16.4-12 9.6-4.4 21.7-4.4 9.1 0 17 1.6 8.1 1.5 12.5 3.9l-3.8 12.2q-4.3-2.1-9.8-3.5-5.5-1.3-14.6-1.3-18.8 0-28.7 12.3-9.6 12-9.6 34.3 0 10 2.2 18.5 2.2 8.3 7 14.5 5 5.9 12.7 9.4 7.8 3.2 19 3.2 9.2 0 15.3-1.9 6.3-2.2 9.2-3.7l3 12.2q-3.9 2.2-12.4 4.4-8.3 1.9-17.5 1.9zm83.9-63.8q6.8 4.6 14.4 11.8 7.9 7.2 15.3 15.8 7.6 8.3 14.2 17.2 6.8 8.8 11.4 16.6h-16.9q-5.2-8.7-12-17-6.5-8.5-14-16-7.2-7.4-14.6-13.5-7.2-6.1-13.8-10.3v56.8h-14.2v-166.9l14.2-2.6v107.5q5.5-5.3 12.3-12 6.7-6.8 13.5-13.8 7-7 13.1-13.6 6.1-6.5 10.5-11.5h17.1q-5.1 5.2-11.4 11.8-6.3 6.5-13.3 13.7-6.8 7-13.6 13.8-6.8 6.8-12.2 12.2zm67.9 4.8q0-14.8 4.2-25.7 4.4-11.2 11.1-18.6 7-7.4 15.8-10.9 8.9-3.8 18.3-3.8 20.8 0 33 13.6 12.5 13.5 12.5 41.7 0 1.8-0.3 3.5 0 1.8-0.2 3.3h-79.3q0.7 20.7 10.3 31.9 9.6 11.1 30.6 11.1 11.5 0 18.3-2.1 6.8-2.2 9.9-3.8l2.6 12.3q-3.1 1.7-11.6 4.1-8.3 2.4-19.7 2.4-14.8 0-25.3-4.3-10.5-4.4-17.3-12.3-6.7-7.8-9.8-18.6-3.1-10.9-3.1-23.8zm15.5-8.9h64.7q-0.4-17.7-8.3-27.6-7.8-9.8-22.3-9.8-7.6 0-13.7 3.1-5.9 3-10.5 8.3-4.4 5-7 11.8-2.4 6.7-2.9 14.2zm124.4-83.3v35.9h45v12h-45v60.1q0 9.6 1.5 15.7 1.7 5.9 4.8 9.2 3.1 3.3 7.4 4.3 4.4 1.1 9.6 1.1 9 0 14.5-1.9 5.4-2.2 8.5-4l3.5 11.8q-3.1 2-10.7 4.6-7.7 2.4-16.6 2.4-10.5 0-17.7-2.6-7-2.8-11.4-8.3-4.1-5.7-5.9-14-1.7-8.3-1.7-19.6v-104z"/>
	</g>
	<g>
		<path id="Standard" class="s0" aria-label="Standard"  d="m339.4 127.7q7.9 0 12.2-2.8 4.4-2.9 4.4-9.2 0-3.7-1.5-6.1-1.3-2.5-3.7-4.2-2.3-1.7-5.3-2.9-3-1.2-6.3-2.6-4.1-1.6-7.4-3.4-3.3-1.7-5.6-3.8-2.3-2.2-3.6-5-1.1-2.9-1.1-6.6 0-8.6 5.7-13.1 5.7-4.4 15.8-4.4 2.7 0 5.3 0.4 2.6 0.4 4.9 1 2.3 0.6 4.1 1.4 1.9 0.8 3.2 1.6l-2.3 5.5q-2.8-1.9-6.9-3-3.9-1.2-8.6-1.2-3.2 0-5.9 0.7-2.6 0.5-4.5 2-1.9 1.4-3.1 3.5-1.1 2.1-1.1 5.1 0 3.1 1.2 5.2 1.2 2.1 3.2 3.7 2.1 1.5 4.9 2.8 2.8 1.2 6.1 2.6 4 1.6 7.4 3.3 3.6 1.6 6.2 3.8 2.6 2.3 4.2 5.5 1.5 3.1 1.5 7.8 0 9.1-6.4 13.6-6.2 4.5-17.1 4.5-3.8 0-7-0.4-3.2-0.5-5.7-1.2-2.5-0.8-4.3-1.5-1.7-0.8-2.7-1.4l2.2-5.7q0.9 0.6 2.6 1.4 1.6 0.7 3.8 1.5 2.3 0.7 5.1 1.2 2.8 0.4 6.1 0.4zm41.1-61.5v15.8h19.9v5.4h-19.9v26.5q0 4.3 0.7 7 0.7 2.6 2.1 4 1.4 1.5 3.3 2 1.9 0.5 4.2 0.5 4 0 6.4-0.9 2.4-1 3.8-1.7l1.5 5.2q-1.3 0.8-4.7 2-3.4 1.1-7.3 1.1-4.7 0-7.9-1.2-3.1-1.3-5-3.7-1.8-2.5-2.6-6.2-0.8-3.6-0.8-8.6v-46zm47.3 61.2q3.6 0 6.3-0.2 2.8-0.3 4.8-0.7v-17.5q-1.1-0.5-3.4-1-2.3-0.6-6.4-0.6-2.3 0-4.8 0.4-2.5 0.3-4.6 1.5-2.2 1-3.5 2.9-1.4 2-1.4 5.2 0 2.8 0.9 4.7 1 1.9 2.6 3.1 1.7 1.2 4.1 1.7 2.4 0.5 5.4 0.5zm-0.6-46.6q4.9 0 8.3 1.5 3.5 1.3 5.6 3.9 2.1 2.4 3.1 5.8 1 3.3 1 7.3v31.5q-1 0.3-2.8 0.7-1.9 0.3-4.3 0.7-2.4 0.3-5.4 0.6-2.9 0.2-6 0.2-4 0-7.3-0.8-3.3-0.9-5.8-2.8-2.5-1.9-3.9-4.8-1.4-3-1.4-7.2 0-4.1 1.6-7 1.5-2.9 4.3-4.7 2.8-2 6.7-2.8 3.9-0.9 8.4-0.9 1.4 0 2.8 0.2 1.6 0.1 2.9 0.4 1.5 0.2 2.4 0.5 1.1 0.2 1.5 0.4v-3.1q0-2.6-0.4-5.1-0.4-2.5-1.7-4.4-1.3-2-3.7-3.2-2.3-1.2-6.2-1.2-5.5 0-8.2 0.7-2.7 0.8-4 1.3l-0.8-5.5q1.6-0.8 5-1.5 3.5-0.7 8.3-0.7zm34 51.2v-48.3q2.8-0.7 7.5-1.7 4.8-1 11.6-1 5.7 0 9.5 1.7 3.9 1.6 6.1 4.7 2.3 3 3.3 7.3 0.9 4.2 0.9 9.3v28h-6.2v-25.9q0-5.3-0.8-9-0.7-3.7-2.4-6-1.7-2.3-4.5-3.3-2.7-1.1-6.8-1.1-4.5 0-7.8 0.5-3.2 0.5-4.1 0.9v43.9zm94.7-75v73.4q-2.8 1-7.2 1.8-4.3 0.9-11 0.9-5.5 0-10-1.7-4.5-1.9-7.8-5.2-3.2-3.4-5-8.3-1.7-4.8-1.7-10.9 0-5.7 1.4-10.4 1.6-4.8 4.5-8.3 2.9-3.5 7-5.4 4.3-2 9.7-2 4.9 0 8.5 1.5 3.6 1.3 5.3 2.6v-26.9zm-6.3 69.1v-35q-0.9-0.6-2.2-1.4-1.3-0.8-3-1.5-1.7-0.6-3.8-1-2-0.5-4.2-0.5-4.7 0-7.9 1.6-3 1.7-5 4.5-1.9 2.7-2.8 6.5-0.9 3.6-0.9 7.8 0 9.8 5 15.2 4.9 5.2 13 5.2 4.7 0 7.5-0.4 2.9-0.5 4.3-1zm38.7 1.4q3.6 0 6.3-0.2 2.8-0.3 4.8-0.7v-17.6q-1.1-0.5-3.4-0.9-2.3-0.6-6.4-0.6-2.3 0-4.8 0.4-2.5 0.3-4.7 1.4-2.1 1.1-3.4 3-1.4 1.9-1.4 5.1 0 2.8 0.9 4.8 0.9 1.9 2.6 3.1 1.7 1.1 4 1.7 2.5 0.5 5.5 0.5zm-0.6-46.6q4.9 0 8.3 1.5 3.5 1.3 5.6 3.8 2.1 2.4 3.1 5.8 0.9 3.4 0.9 7.4v31.5q-0.9 0.2-2.8 0.6-1.8 0.3-4.2 0.7-2.4 0.4-5.4 0.7-2.9 0.2-6 0.2-4 0-7.4-0.9-3.2-0.9-5.7-2.7-2.5-1.9-3.9-4.8-1.4-3-1.4-7.3 0-4 1.6-6.9 1.5-2.9 4.3-4.8 2.8-1.9 6.7-2.8 3.9-0.8 8.4-0.8 1.4 0 2.8 0.2 1.5 0.1 2.9 0.3 1.5 0.2 2.4 0.5 1.1 0.2 1.5 0.4v-3.1q0-2.6-0.4-5-0.4-2.5-1.8-4.4-1.2-2.1-3.6-3.2-2.3-1.3-6.2-1.3-5.5 0-8.2 0.8-2.7 0.8-4 1.2l-0.9-5.5q1.7-0.7 5.1-1.4 3.4-0.7 8.3-0.7zm51 0.2q3.1 0 5.8 0.5 2.8 0.5 3.9 0.9l-1.3 5.5q-0.8-0.4-3.2-0.8-2.3-0.5-6.2-0.5-4 0-6.5 0.6-2.5 0.6-3.2 0.9v43.8h-6.3v-47.6q2.4-1.1 6.7-2.1 4.2-1.2 10.3-1.2zm58.8-24.1v73.5q-2.8 0.9-7.1 1.8-4.4 0.9-11 0.9-5.5 0-10.1-1.8-4.4-1.8-7.7-5.2-3.2-3.4-5-8.2-1.8-4.8-1.8-10.9 0-5.7 1.5-10.4 1.5-4.9 4.4-8.4 2.9-3.4 7.1-5.4 4.2-1.9 9.6-1.9 5 0 8.5 1.5 3.7 1.3 5.4 2.6v-26.9zm-6.3 69.1v-35q-0.9-0.7-2.2-1.4-1.3-0.8-3-1.5-1.8-0.7-3.8-1.1-2-0.4-4.3-0.4-4.6 0-7.8 1.6-3.1 1.6-5 4.5-1.9 2.7-2.8 6.4-0.9 3.7-0.9 7.9 0 9.8 4.9 15.1 5 5.2 13.1 5.2 4.6 0 7.4-0.3 2.9-0.5 4.4-1z"/>
	</g>
	<path fill-rule="evenodd" class="s1" d="m0 0h254.1v400h-254.1z"/>
	<path id="Color Fill 1" class="s2" d="m77.1 354.9h93.1l25.4-116.9-139.5 1.1z"/>
	<path id="Shape 1" fill-rule="evenodd" class="s2" d="m200.6 233.4v29.5h-150.2v-29.5z"/>
	<path id="Shape 2" fill-rule="evenodd" class="s3" d="m125.1 308.3c-38.8 0-70.3-34.5-70.3-77.2 0-42.6 31.5-77.1 70.3-77.1 38.9 0 70.3 34.5 70.3 77.1 0 42.7-31.4 77.2-70.3 77.2z"/>
</svg>